<svg width="122" height="23" viewBox="0 0 122 23" fill="none" xmlns="http://www.w3.org/2000/svg">
<path d="M7.70247 22.7393C6.43314 22.7393 5.29447 22.5153 4.28647 22.0673C3.27847 21.6006 2.47581 20.9753 1.87847 20.1913C1.29981 19.4073 0.982473 18.5393 0.926473 17.5873H4.87447C4.94914 18.1846 5.23847 18.6793 5.74247 19.0713C6.26514 19.4633 6.90914 19.6593 7.67447 19.6593C8.42114 19.6593 8.99981 19.51 9.41047 19.2113C9.83981 18.9126 10.0545 18.53 10.0545 18.0633C10.0545 17.5593 9.79314 17.186 9.27047 16.9433C8.76647 16.682 7.95447 16.402 6.83447 16.1033C5.67714 15.8233 4.72514 15.534 3.97847 15.2353C3.25047 14.9366 2.61581 14.4793 2.07447 13.8633C1.55181 13.2473 1.29047 12.4166 1.29047 11.3713C1.29047 10.5126 1.53314 9.72864 2.01847 9.0193C2.52247 8.30997 3.23181 7.74997 4.14647 7.3393C5.07981 6.92864 6.17181 6.7233 7.42247 6.7233C9.27047 6.7233 10.7451 7.18997 11.8465 8.1233C12.9478 9.03797 13.5545 10.2793 13.6665 11.8473H9.91447C9.85847 11.2313 9.59714 10.746 9.13047 10.3913C8.68247 10.018 8.07581 9.8313 7.31047 9.8313C6.60114 9.8313 6.05047 9.96197 5.65847 10.2233C5.28514 10.4846 5.09847 10.8486 5.09847 11.3153C5.09847 11.838 5.35981 12.2393 5.88247 12.5193C6.40514 12.7806 7.21714 13.0513 8.31847 13.3313C9.43847 13.6113 10.3625 13.9006 11.0905 14.1993C11.8185 14.498 12.4438 14.9646 12.9665 15.5993C13.5078 16.2153 13.7878 17.0366 13.8065 18.0633C13.8065 18.9593 13.5545 19.762 13.0505 20.4713C12.5651 21.1806 11.8558 21.7406 10.9225 22.1513C10.0078 22.5433 8.93447 22.7393 7.70247 22.7393ZM16.0163 14.6753C16.0163 13.1073 16.3243 11.7166 16.9403 10.5033C17.575 9.28997 18.4243 8.35664 19.4883 7.7033C20.571 7.04997 21.775 6.7233 23.1003 6.7233C24.2576 6.7233 25.2656 6.95664 26.1243 7.4233C27.0016 7.88997 27.7016 8.47797 28.2243 9.1873V6.9753H32.1723V22.4873H28.2243V20.2193C27.7203 20.9473 27.0203 21.554 26.1243 22.0393C25.247 22.506 24.2296 22.7393 23.0723 22.7393C21.7656 22.7393 20.571 22.4033 19.4883 21.7313C18.4243 21.0593 17.575 20.1166 16.9403 18.9033C16.3243 17.6713 16.0163 16.262 16.0163 14.6753ZM28.2243 14.7313C28.2243 13.7793 28.0376 12.9673 27.6643 12.2953C27.291 11.6046 26.787 11.082 26.1523 10.7273C25.5176 10.354 24.8363 10.1673 24.1083 10.1673C23.3803 10.1673 22.7083 10.3446 22.0923 10.6993C21.4763 11.054 20.9723 11.5766 20.5803 12.2673C20.207 12.9393 20.0203 13.742 20.0203 14.6753C20.0203 15.6086 20.207 16.43 20.5803 17.1393C20.9723 17.83 21.4763 18.362 22.0923 18.7353C22.727 19.1086 23.399 19.2953 24.1083 19.2953C24.8363 19.2953 25.5176 19.118 26.1523 18.7633C26.787 18.39 27.291 17.8673 27.6643 17.1953C28.0376 16.5046 28.2243 15.6833 28.2243 14.7313ZM44.5968 6.7513C46.4448 6.7513 47.9382 7.3393 49.0768 8.5153C50.2155 9.67264 50.7848 11.2966 50.7848 13.3873V22.4873H46.8648V13.9193C46.8648 12.6873 46.5568 11.7446 45.9408 11.0913C45.3248 10.4193 44.4848 10.0833 43.4208 10.0833C42.3382 10.0833 41.4795 10.4193 40.8448 11.0913C40.2288 11.7446 39.9208 12.6873 39.9208 13.9193V22.4873H36.0008V6.9753H39.9208V8.9073C40.4435 8.2353 41.1062 7.71264 41.9088 7.3393C42.7302 6.9473 43.6262 6.7513 44.5968 6.7513ZM63.6966 22.4873L58.4326 15.8793V22.4873H54.5126V1.7673H58.4326V13.5553L63.6406 6.9753H68.7366L61.9046 14.7593L68.7926 22.4873H63.6966ZM77.7521 22.7393C76.2588 22.7393 74.9148 22.4126 73.7201 21.7593C72.5255 21.0873 71.5828 20.1446 70.8921 18.9313C70.2201 17.718 69.8841 16.318 69.8841 14.7313C69.8841 13.1446 70.2295 11.7446 70.9201 10.5313C71.6295 9.31797 72.5908 8.38464 73.8041 7.7313C75.0175 7.0593 76.3708 6.7233 77.8641 6.7233C79.3575 6.7233 80.7108 7.0593 81.9241 7.7313C83.1375 8.38464 84.0895 9.31797 84.7801 10.5313C85.4895 11.7446 85.8441 13.1446 85.8441 14.7313C85.8441 16.318 85.4801 17.718 84.7521 18.9313C84.0428 20.1446 83.0721 21.0873 81.8401 21.7593C80.6268 22.4126 79.2641 22.7393 77.7521 22.7393ZM77.7521 19.3233C78.4615 19.3233 79.1241 19.1553 79.7401 18.8193C80.3748 18.4646 80.8788 17.942 81.2521 17.2513C81.6255 16.5606 81.8121 15.7206 81.8121 14.7313C81.8121 13.2566 81.4201 12.1273 80.6361 11.3433C79.8708 10.5406 78.9281 10.1393 77.8081 10.1393C76.6881 10.1393 75.7455 10.5406 74.9801 11.3433C74.2335 12.1273 73.8601 13.2566 73.8601 14.7313C73.8601 16.206 74.2241 17.3446 74.9521 18.1473C75.6988 18.9313 76.6321 19.3233 77.7521 19.3233ZM95.8316 10.1953H93.1156V22.4873H89.1396V10.1953H87.3756V6.9753H89.1396V6.1913C89.1396 4.2873 89.6809 2.8873 90.7636 1.9913C91.8463 1.0953 93.4796 0.675304 95.6636 0.731304V4.0353C94.7116 4.01664 94.0489 4.1753 93.6756 4.5113C93.3023 4.8473 93.1156 5.45397 93.1156 6.3313V6.9753H95.8316V10.1953ZM97.3639 14.6753C97.3639 13.1073 97.6719 11.7166 98.2879 10.5033C98.9226 9.28997 99.7719 8.35664 100.836 7.7033C101.919 7.04997 103.123 6.7233 104.448 6.7233C105.605 6.7233 106.613 6.95664 107.472 7.4233C108.349 7.88997 109.049 8.47797 109.572 9.1873V6.9753H113.52V22.4873H109.572V20.2193C109.068 20.9473 108.368 21.554 107.472 22.0393C106.595 22.506 105.577 22.7393 104.42 22.7393C103.113 22.7393 101.919 22.4033 100.836 21.7313C99.7719 21.0593 98.9226 20.1166 98.2879 18.9033C97.6719 17.6713 97.3639 16.262 97.3639 14.6753ZM109.572 14.7313C109.572 13.7793 109.385 12.9673 109.012 12.2953C108.639 11.6046 108.135 11.082 107.5 10.7273C106.865 10.354 106.184 10.1673 105.456 10.1673C104.728 10.1673 104.056 10.3446 103.44 10.6993C102.824 11.054 102.32 11.5766 101.928 12.2673C101.555 12.9393 101.368 13.742 101.368 14.6753C101.368 15.6086 101.555 16.43 101.928 17.1393C102.32 17.83 102.824 18.362 103.44 18.7353C104.075 19.1086 104.747 19.2953 105.456 19.2953C106.184 19.2953 106.865 19.118 107.5 18.7633C108.135 18.39 108.639 17.8673 109.012 17.1953C109.385 16.5046 109.572 15.6833 109.572 14.7313ZM119.085 22.6833C118.375 22.6833 117.787 22.4686 117.321 22.0393C116.873 21.5913 116.649 21.0406 116.649 20.3873C116.649 19.734 116.873 19.1926 117.321 18.7633C117.787 18.3153 118.375 18.0913 119.085 18.0913C119.775 18.0913 120.345 18.3153 120.793 18.7633C121.241 19.1926 121.465 19.734 121.465 20.3873C121.465 21.0406 121.241 21.5913 120.793 22.0393C120.345 22.4686 119.775 22.6833 119.085 22.6833Z" fill="white"/>
</svg>
