<svg width="117" height="29" viewBox="0 0 117 29" fill="none" xmlns="http://www.w3.org/2000/svg">
<path d="M0.192066 13.6753C0.192066 12.1073 0.500066 10.7166 1.11607 9.5033C1.75073 8.28997 2.60007 7.35664 3.66407 6.7033C4.74673 6.04997 5.95073 5.7233 7.27607 5.7233C8.4334 5.7233 9.4414 5.95664 10.3001 6.4233C11.1774 6.88997 11.8774 7.47797 12.4001 8.1873V5.9753H16.3481V21.4873H12.4001V19.2193C11.8961 19.9473 11.1961 20.554 10.3001 21.0393C9.42273 21.506 8.4054 21.7393 7.24807 21.7393C5.9414 21.7393 4.74673 21.4033 3.66407 20.7313C2.60007 20.0593 1.75073 19.1166 1.11607 17.9033C0.500066 16.6713 0.192066 15.262 0.192066 13.6753ZM12.4001 13.7313C12.4001 12.7793 12.2134 11.9673 11.8401 11.2953C11.4667 10.6046 10.9627 10.082 10.3281 9.7273C9.6934 9.35397 9.01207 9.1673 8.28407 9.1673C7.55607 9.1673 6.88407 9.34464 6.26807 9.6993C5.65207 10.054 5.14807 10.5766 4.75607 11.2673C4.38273 11.9393 4.19607 12.742 4.19607 13.6753C4.19607 14.6086 4.38273 15.43 4.75607 16.1393C5.14807 16.83 5.65207 17.362 6.26807 17.7353C6.90273 18.1086 7.57473 18.2953 8.28407 18.2953C9.01207 18.2953 9.6934 18.118 10.3281 17.7633C10.9627 17.39 11.4667 16.8673 11.8401 16.1953C12.2134 15.5046 12.4001 14.6833 12.4001 13.7313ZM19.1686 13.6753C19.1686 12.1073 19.4766 10.7166 20.0926 9.5033C20.7273 8.28997 21.586 7.35664 22.6686 6.7033C23.7513 6.04997 24.9553 5.7233 26.2806 5.7233C27.2886 5.7233 28.25 5.9473 29.1646 6.3953C30.0793 6.82464 30.8073 7.4033 31.3486 8.1313V0.767304H35.3246V21.4873H31.3486V19.1913C30.8633 19.9566 30.182 20.5726 29.3046 21.0393C28.4273 21.506 27.41 21.7393 26.2526 21.7393C24.946 21.7393 23.7513 21.4033 22.6686 20.7313C21.586 20.0593 20.7273 19.1166 20.0926 17.9033C19.4766 16.6713 19.1686 15.262 19.1686 13.6753ZM31.3766 13.7313C31.3766 12.7793 31.19 11.9673 30.8166 11.2953C30.4433 10.6046 29.9393 10.082 29.3046 9.7273C28.67 9.35397 27.9886 9.1673 27.2606 9.1673C26.5326 9.1673 25.8606 9.34464 25.2446 9.6993C24.6286 10.054 24.1246 10.5766 23.7326 11.2673C23.3593 11.9393 23.1726 12.742 23.1726 13.6753C23.1726 14.6086 23.3593 15.43 23.7326 16.1393C24.1246 16.83 24.6286 17.362 25.2446 17.7353C25.8793 18.1086 26.5513 18.2953 27.2606 18.2953C27.9886 18.2953 28.67 18.118 29.3046 17.7633C29.9393 17.39 30.4433 16.8673 30.8166 16.1953C31.19 15.5046 31.3766 14.6833 31.3766 13.7313ZM46.0412 21.7393C44.5479 21.7393 43.2039 21.4126 42.0092 20.7593C40.8145 20.0873 39.8719 19.1446 39.1812 17.9313C38.5092 16.718 38.1732 15.318 38.1732 13.7313C38.1732 12.1446 38.5185 10.7446 39.2092 9.5313C39.9185 8.31797 40.8799 7.38464 42.0932 6.7313C43.3065 6.0593 44.6599 5.7233 46.1532 5.7233C47.6465 5.7233 48.9999 6.0593 50.2132 6.7313C51.4265 7.38464 52.3785 8.31797 53.0692 9.5313C53.7785 10.7446 54.1332 12.1446 54.1332 13.7313C54.1332 15.318 53.7692 16.718 53.0412 17.9313C52.3319 19.1446 51.3612 20.0873 50.1292 20.7593C48.9159 21.4126 47.5532 21.7393 46.0412 21.7393ZM46.0412 18.3233C46.7505 18.3233 47.4132 18.1553 48.0292 17.8193C48.6639 17.4646 49.1679 16.942 49.5412 16.2513C49.9145 15.5606 50.1012 14.7206 50.1012 13.7313C50.1012 12.2566 49.7092 11.1273 48.9252 10.3433C48.1599 9.54064 47.2172 9.1393 46.0972 9.1393C44.9772 9.1393 44.0345 9.54064 43.2692 10.3433C42.5225 11.1273 42.1492 12.2566 42.1492 13.7313C42.1492 15.206 42.5132 16.3446 43.2412 17.1473C43.9879 17.9313 44.9212 18.3233 46.0412 18.3233ZM60.9287 8.2433C61.4327 7.49664 62.1233 6.88997 63.0007 6.4233C63.8967 5.95664 64.914 5.7233 66.0527 5.7233C67.378 5.7233 68.5727 6.04997 69.6367 6.7033C70.7193 7.35664 71.5687 8.28997 72.1847 9.5033C72.8193 10.698 73.1367 12.0886 73.1367 13.6753C73.1367 15.262 72.8193 16.6713 72.1847 17.9033C71.5687 19.1166 70.7193 20.0593 69.6367 20.7313C68.5727 21.4033 67.378 21.7393 66.0527 21.7393C64.8953 21.7393 63.878 21.5153 63.0007 21.0673C62.142 20.6006 61.4513 20.0033 60.9287 19.2753V21.4873H57.0087V0.767304H60.9287V8.2433ZM69.1327 13.6753C69.1327 12.742 68.9367 11.9393 68.5447 11.2673C68.1713 10.5766 67.6673 10.054 67.0327 9.6993C66.4167 9.34464 65.7447 9.1673 65.0167 9.1673C64.3073 9.1673 63.6353 9.35397 63.0007 9.7273C62.3847 10.082 61.8807 10.6046 61.4887 11.2953C61.1153 11.986 60.9287 12.798 60.9287 13.7313C60.9287 14.6646 61.1153 15.4766 61.4887 16.1673C61.8807 16.858 62.3847 17.39 63.0007 17.7633C63.6353 18.118 64.3073 18.2953 65.0167 18.2953C65.7447 18.2953 66.4167 18.1086 67.0327 17.7353C67.6673 17.362 68.1713 16.83 68.5447 16.1393C68.9367 15.4486 69.1327 14.6273 69.1327 13.6753ZM90.8252 5.9753L81.2212 28.8233H77.0492L80.4092 21.0953L74.1932 5.9753H78.5892L82.5932 16.8113L86.6532 5.9753H90.8252ZM91.9303 13.6753C91.9303 12.1073 92.2383 10.7166 92.8543 9.5033C93.489 8.28997 94.3383 7.35664 95.4023 6.7033C96.485 6.04997 97.689 5.7233 99.0143 5.7233C100.172 5.7233 101.18 5.95664 102.038 6.4233C102.916 6.88997 103.616 7.47797 104.138 8.1873V5.9753H108.086V21.4873H104.138V19.2193C103.634 19.9473 102.934 20.554 102.038 21.0393C101.161 21.506 100.144 21.7393 98.9863 21.7393C97.6797 21.7393 96.485 21.4033 95.4023 20.7313C94.3383 20.0593 93.489 19.1166 92.8543 17.9033C92.2383 16.6713 91.9303 15.262 91.9303 13.6753ZM104.138 13.7313C104.138 12.7793 103.952 11.9673 103.578 11.2953C103.205 10.6046 102.701 10.082 102.066 9.7273C101.432 9.35397 100.75 9.1673 100.022 9.1673C99.2943 9.1673 98.6223 9.34464 98.0063 9.6993C97.3903 10.054 96.8863 10.5766 96.4943 11.2673C96.121 11.9393 95.9343 12.742 95.9343 13.6753C95.9343 14.6086 96.121 15.43 96.4943 16.1393C96.8863 16.83 97.3903 17.362 98.0063 17.7353C98.641 18.1086 99.313 18.2953 100.022 18.2953C100.75 18.2953 101.432 18.118 102.066 17.7633C102.701 17.39 103.205 16.8673 103.578 16.1953C103.952 15.5046 104.138 14.6833 104.138 13.7313ZM113.651 21.6833C112.942 21.6833 112.354 21.4686 111.887 21.0393C111.439 20.5913 111.215 20.0406 111.215 19.3873C111.215 18.734 111.439 18.1926 111.887 17.7633C112.354 17.3153 112.942 17.0913 113.651 17.0913C114.342 17.0913 114.911 17.3153 115.359 17.7633C115.807 18.1926 116.031 18.734 116.031 19.3873C116.031 20.0406 115.807 20.5913 115.359 21.0393C114.911 21.4686 114.342 21.6833 113.651 21.6833Z" fill="white"/>
</svg>
